<?xml version="1.0" encoding="UTF-8"?> <!-- Generator: Adobe Illustrator 23.1.1, SVG Export Plug-In . SVG Version: 6.00 Build 0) --> <svg xmlns="http://www.w3.org/2000/svg" xmlns:xlink="http://www.w3.org/1999/xlink" id="Layer_1" x="0px" y="0px" viewBox="0 0 100.4 100.4" style="enable-background:new 0 0 100.4 100.4;" xml:space="preserve"> <style type="text/css"> .st0{fill:#FF4719;} </style> <g> <path class="st0" d="M90,57.5c-1.4-1.4-3.3-2.2-5.3-2.2l0,0c-0.1,0-6.3,0.1-9.3-6.9c-0.9-2-1.1-4.3-1.2-5.3c1.8-2,2.8-4.6,2.8-7.4 c0-5.7-4.3-10.3-9.8-11v-11c0-0.8-0.7-1.5-1.5-1.5H8.9c-0.8,0-1.5,0.7-1.5,1.5V87c0,0.8,0.7,1.5,1.5,1.5h56.8 c0.8,0,1.5-0.7,1.5-1.5V76h21c0.8,0,1.5-0.7,1.5-1.5V70h1c0.8,0,1.5-0.7,1.5-1.5v-5.8C92.1,60.8,91.4,58.9,90,57.5z M73.9,35.7 c0,2.2-0.8,4.2-2.4,5.7c-0.3,0.3-0.5,0.7-0.4,1.1c0,0.2,0.1,3.8,1.5,7c3.7,8.7,11.5,8.7,12.1,8.7c1.2,0,2.3,0.5,3.1,1.3 c0.8,0.8,1.3,2,1.3,3.2V67h-0.7c-0.1,0-0.2,0-0.3,0s-0.2,0-0.3,0H42.5v-4.3c0-2.5,2-4.4,4.4-4.5c0.9,0,8.1,0.2,12-8.5 c1.3-3,1.6-7.1,1.6-7.2c0-0.4-0.1-0.8-0.4-1.2c-1.5-1.5-2.3-3.5-2.3-5.7c0-4.5,3.6-8.1,8.1-8.1C70.3,27.7,73.9,31.3,73.9,35.7z M64.2,85.6H10.4V15.2h53.8v9.6c-5.3,0.8-9.4,5.4-9.4,10.9c0,2.7,1,5.3,2.7,7.3c-0.1,1.2-0.5,3.7-1.3,5.6c-3.1,7-8.9,6.7-9.1,6.7 H47c-4.1,0-7.5,3.4-7.5,7.5v5.8c0,0.8,0.7,1.5,1.5,1.5h1.2v4.5c0,0.8,0.7,1.5,1.5,1.5h20.4L64.2,85.6L64.2,85.6z M86.6,73.1H66 c-0.1,0-0.2-0.1-0.4-0.1s-0.2,0-0.4,0.1h-20v-3h41.4V73.1z"></path> <path class="st0" d="M35.9,27.8H16.8c-0.8,0-1.5,0.7-1.5,1.5s0.7,1.5,1.5,1.5h19.1c0.8,0,1.5-0.7,1.5-1.5S36.7,27.8,35.9,27.8z"></path> <path class="st0" d="M35.9,35.5H16.8c-0.8,0-1.5,0.7-1.5,1.5s0.7,1.5,1.5,1.5h19.1c0.8,0,1.5-0.7,1.5-1.5S36.7,35.5,35.9,35.5z"></path> <path class="st0" d="M35.9,43.4H16.8c-0.8,0-1.5,0.7-1.5,1.5s0.7,1.5,1.5,1.5h19.1c0.8,0,1.5-0.7,1.5-1.5S36.7,43.4,35.9,43.4z"></path> </g> </svg> 