<?xml version="1.0" encoding="UTF-8"?> <!-- Generator: Adobe Illustrator 23.1.1, SVG Export Plug-In . SVG Version: 6.00 Build 0) --> <svg xmlns="http://www.w3.org/2000/svg" xmlns:xlink="http://www.w3.org/1999/xlink" id="Layer_1" x="0px" y="0px" viewBox="0 0 101 101" style="enable-background:new 0 0 101 101;" xml:space="preserve"> <style type="text/css"> .st0{fill:#FF4719;} </style> <path class="st0" d="M50.8,48.8c-17.5,0-31.7,14.2-31.7,31.7c0,0.8,0.7,1.5,1.5,1.5H81c0.8,0,1.5-0.7,1.5-1.5 C82.5,63,68.3,48.8,50.8,48.8z M22.1,79C23,63.2,36.5,51,52.3,51.8C67,52.6,78.7,64.3,79.5,79H22.1z"></path> <path class="st0" d="M50.3,45.7c10.1,0,18.3-8.2,18.3-18.3c0-0.5,0-0.9-0.1-1.4h7c0.8,0,1.5-0.7,1.5-1.5S76.3,23,75.5,23H68 C65.6,13.2,55.7,7.2,45.9,9.6S30,21.9,32.4,31.7C34.4,39.9,41.8,45.7,50.3,45.7z M50.3,12c6.8,0,12.8,4.5,14.7,11H35.6 C37.5,16.5,43.5,12,50.3,12L50.3,12z M35,26h30.5c0,0.4,0.1,0.9,0.1,1.4c-0.2,8.5-7.3,15.1-15.7,14.9c-8.2-0.2-14.7-6.8-14.9-14.9 C34.9,26.9,35,26.4,35,26z"></path> <path class="st0" d="M63.5,61c-3.6,0-6.5,2.9-6.5,6.5s2.9,6.5,6.5,6.5s6.5-2.9,6.5-6.5C70,63.9,67.1,61,63.5,61z M63.5,71 c-1.9,0-3.5-1.6-3.5-3.5s1.6-3.5,3.5-3.5c1.9,0,3.5,1.6,3.5,3.5S65.4,71,63.5,71z"></path> </svg> 