<?xml version="1.0" encoding="UTF-8"?> <!-- Generator: Adobe Illustrator 23.1.1, SVG Export Plug-In . SVG Version: 6.00 Build 0) --> <svg xmlns="http://www.w3.org/2000/svg" xmlns:xlink="http://www.w3.org/1999/xlink" id="Layer_1" x="0px" y="0px" viewBox="0 0 100.2 100.2" style="enable-background:new 0 0 100.2 100.2;" xml:space="preserve"> <style type="text/css"> .st0{fill:#FF4719;} </style> <g> <path class="st0" d="M88.9,76.8L54,13.2c-0.9-1.7-2.6-2.7-4.5-2.7s-3.6,1-4.5,2.7L10.1,76.8c-0.9,1.6-0.9,3.6,0.1,5.2 c0.9,1.6,2.6,2.5,4.5,2.5h69.6c1.8,0,3.5-1,4.5-2.5C89.7,80.3,89.7,78.4,88.9,76.8z M86.2,80.4c-0.4,0.7-1.1,1.1-1.9,1.1H14.7 c-0.8,0-1.5-0.4-1.9-1.1s-0.4-1.5,0-2.2l34.8-63.6c0.4-0.7,1.1-1.1,1.9-1.1s1.5,0.4,1.9,1.1l34.8,63.6 C86.6,78.9,86.6,79.7,86.2,80.4z"></path> <ellipse class="st0" cx="49.5" cy="69.5" rx="2.5" ry="2.5"></ellipse> <path class="st0" d="M49.5,59.5c0.8,0,1.5-0.7,1.5-1.5V34c0-0.8-0.7-1.5-1.5-1.5S48,33.2,48,34v24C48,58.8,48.7,59.5,49.5,59.5z"></path> </g> </svg> 