<?xml version="1.0" encoding="UTF-8"?> <!-- Generator: Adobe Illustrator 23.1.1, SVG Export Plug-In . SVG Version: 6.00 Build 0) --> <svg xmlns="http://www.w3.org/2000/svg" xmlns:xlink="http://www.w3.org/1999/xlink" id="Слой_1" x="0px" y="0px" viewBox="0 0 101 101" style="enable-background:new 0 0 101 101;" xml:space="preserve"> <style type="text/css"> .st0{fill:#FFFFFF;} .st1{fill:none;stroke:#FF4719;stroke-width:3;stroke-linecap:round;stroke-linejoin:round;stroke-miterlimit:10;} </style> <title>log_Монтажная область 20</title> <path class="st0" d="M221.3,9.9h-8.5V-1.6c0-0.8-0.7-1.5-1.5-1.5c-0.1,0-0.3,0-0.4,0.1l-46,13h-0.1l-0.1,0.1l-0.1,0.1l-0.1,0.1 l-0.1,0.1l-0.1,0.1l-0.1,0.1l-0.1,0.1l-0.1,0.1l-0.1,0.2v0.1c0,0,0,0.1,0,0.1c0,0.1,0,0.1,0,0.2c0,0,0,0.1,0,0.1v69 c0,0.8,0.6,1.4,1.4,1.5h56c0.8,0,1.5-0.7,1.5-1.5v-69C222.8,10.6,222.1,9.9,221.3,9.9z M209.8,9.9h-33.7l33.7-9.5V9.9z M219.8,78.9 h-53v-66h53V78.9z"></path> <path class="st0" d="M193.3,23.9c-8.3,0-15,6.7-15,15s6.7,15,15,15s15-6.7,15-15S201.6,23.9,193.3,23.9z M193.3,50.9 c-6.6,0-12-5.4-12-12s5.4-12,12-12c6.6,0,12,5.4,12,12S199.9,50.9,193.3,50.9z"></path> <path class="st0" d="M202.8,63.9h-19c-0.8,0-1.5,0.7-1.5,1.5s0.7,1.5,1.5,1.5h19c0.8,0,1.5-0.7,1.5-1.5S203.6,63.9,202.8,63.9z"></path> <rect x="7.3" y="20.6" class="st1" width="86.4" height="60.2"></rect> <circle class="st1" cx="65.8" cy="50.7" r="18.3"></circle> <line class="st1" x1="78.8" y1="37.8" x2="52.9" y2="63.7"></line> <line class="st1" x1="78.8" y1="63.7" x2="52.9" y2="37.8"></line> <rect x="16.9" y="59.3" class="st1" width="19.6" height="9.7"></rect> <line class="st1" x1="27.9" y1="32.4" x2="16.9" y2="32.4"></line> </svg> 