<?xml version="1.0" encoding="UTF-8"?> <!-- Generator: Adobe Illustrator 23.1.1, SVG Export Plug-In . SVG Version: 6.00 Build 0) --> <svg xmlns="http://www.w3.org/2000/svg" xmlns:xlink="http://www.w3.org/1999/xlink" id="Слой_1" x="0px" y="0px" viewBox="0 0 101 101" style="enable-background:new 0 0 101 101;" xml:space="preserve"> <style type="text/css"> .st0{fill:#FF4719;} </style> <title>log_Монтажная область 20</title> <path class="st0" d="M78.5,19H70V7.5C70,6.7,69.3,6,68.5,6c-0.1,0-0.3,0-0.4,0.1l-46,13H22l-0.1,0.1l-0.1,0.1l-0.1,0.1l-0.1,0.1 l-0.1,0.1l-0.1,0.1l-0.1,0.1l-0.1,0.1L21.1,20v0.1v0.1c0,0.1,0,0.1,0,0.2v0.1v69c0,0.8,0.6,1.4,1.4,1.5h56c0.8,0,1.5-0.7,1.5-1.5 v-69C80,19.7,79.3,19,78.5,19z M67,19H33.3L67,9.5V19z M77,88H24V22h53V88z"></path> <path class="st0" d="M50.5,33c-8.3,0-15,6.7-15,15s6.7,15,15,15s15-6.7,15-15S58.8,33,50.5,33z M50.5,60c-6.6,0-12-5.4-12-12 s5.4-12,12-12s12,5.4,12,12S57.1,60,50.5,60z"></path> <path class="st0" d="M60,73H41c-0.8,0-1.5,0.7-1.5,1.5S40.2,76,41,76h19c0.8,0,1.5-0.7,1.5-1.5S60.8,73,60,73z"></path> </svg> 